<svg id="Layer_1" data-name="Layer 1" xmlns="http://www.w3.org/2000/svg" viewBox="0 0 2000 2000"><defs><style>.cls-1{fill:#3e405b;}.cls-2{fill:#e07a5f;}.cls-3{fill:none;stroke:#e07a5f;stroke-miterlimit:10;stroke-width:10px;}</style></defs><rect class="cls-1" y="0.5" width="2000" height="2000"/><polygon class="cls-2" points="1085.26 1708.07 1202.19 1358.35 1561.47 283.14 1912.38 284.44 1429.77 1716.87 1082.43 1716.54 1085.26 1708.07"/><polygon class="cls-2" points="374.75 641.65 365.84 641.65 126.98 283.35 1201.87 283.35 1201.87 1358.24 849.65 1358.24 847.91 1355.64 843.57 1349.12 843.57 641.65 374.75 641.65"/><polygon class="cls-2" points="847.91 1355.64 849.65 1358.24 843.57 1358.24 843.57 1349.12 847.91 1355.64"/><polygon class="cls-2" points="843.57 1358.24 843.57 1716.54 365.84 1716.54 126.98 1358.24 843.57 1358.24"/><polyline class="cls-3" points="847.91 1355.64 849.65 1358.24 1085.26 1708.07 1088.95 1713.61"/><polyline class="cls-3" points="847.91 1355.64 843.57 1349.12 374.75 641.65 365.73 627.97"/></svg>